<svg width="72" height="72" viewBox="0 0 72 72" fill="none" xmlns="http://www.w3.org/2000/svg">
<path d="M55.3897 65.6382C52.3058 65.6382 49.9318 64.3661 48.2703 61.8196L37.235 45.2297L37.2111 45.2657L32.4705 38.2633C29.7188 33.8002 29.7021 31.9438 32.4896 27.4494L48.6265 2.86398C49.9701 0.954659 51.7511 0 53.9649 0H70.5752L47.7946 31.6264L72.0001 65.6406H55.3897V65.6382Z" fill="#3C3C3B"/>
<path d="M16.7877 71.6547C19.7903 71.6547 22.0997 70.4163 23.7158 67.9371L34.4547 51.7944L34.4762 51.8281L39.0902 45.0132C41.7677 40.6704 41.7844 38.8645 39.0734 34.4879L23.3715 10.5638C22.0639 8.70494 20.3306 7.77673 18.1766 7.77673H2.01098L24.1796 38.5543L0.62439 71.6547H16.79H16.7877Z" fill="#F09200"/>
</svg>
